<svg width="120" height="120" viewBox="0 0 120 120" xmlns="http://www.w3.org/2000/svg">
  <g stroke="white" stroke-width="0.8" fill="none">
    <!-- Horizontal lines -->
    <path d="M 10 20 L 50 20 M 70 20 L 110 20" />
    <path d="M 10 60 L 30 60 M 50 60 L 70 60 M 90 60 L 110 60" />
    <path d="M 10 100 L 30 100 M 50 100 L 90 100" />
    
    <!-- Vertical lines -->
    <path d="M 20 10 L 20 30 M 20 50 L 20 90" />
    <path d="M 60 10 L 60 50 M 60 70 L 60 110" />
    <path d="M 100 10 L 100 30 M 100 50 L 100 70 M 100 90 L 100 110" />
    
    <!-- Circles and connection points -->
    <circle cx="20" cy="20" r="3" />
    <circle cx="60" cy="60" r="3" />
    <circle cx="100" cy="100" r="3" />
    <circle cx="20" cy="100" r="3" />
    <circle cx="100" cy="20" r="3" />
    
    <!-- Diagonal connections -->
    <path d="M 30 30 L 50 50" />
    <path d="M 70 70 L 90 90" />
    <path d="M 30 90 L 50 70" />
    <path d="M 70 50 L 90 30" />
  </g>
</svg> 