<svg width="64" height="64" viewBox="0 0 64 64" fill="none" xmlns="http://www.w3.org/2000/svg">
  <!-- Outer gradient circle with blur effect -->
  <circle cx="32" cy="32" r="32" fill="url(#gradient)" />
  
  <!-- Inner black circle for the T letter -->
  <circle cx="32" cy="32" r="22" fill="black" />
  
  <!-- T letter in Pacifico style -->
  <path d="M29.5 26.5C30.3 26.5 31 26.7 31.6 27.1C32.2 27.5 32.7 28 33.1 28.7C33.5 29.3 33.7 30.1 33.7 30.9C33.7 32.6 33.2 34.2 32.3 35.7C31.3 37.2 30 38.4 28.3 39.2C27.5 39.6 26.6 39.8 25.7 39.8C24.5 39.8 23.5 39.4 22.7 38.6C21.9 37.8 21.5 36.8 21.5 35.6C21.5 34.1 22 32.7 22.9 31.6C23.8 30.5 25 29.7 26.3 29.4C26.5 29.3 26.6 29.2 26.8 29.1C27 29 27.1 28.8 27.1 28.6C27.1 28.2 26.8 27.9 26.3 27.7C25.9 27.5 25.3 27.4 24.8 27.4C24.3 27.4 23.9 27.5 23.5 27.7C23.2 27.9 22.9 28.1 22.9 28.4C22.9 28.7 23.1 28.8 23.5 28.8C23.7 28.8 23.8 28.9 23.8 29C23.8 29.1 23.7 29.2 23.6 29.3C23.5 29.4 23.3 29.4 23.1 29.4C22.7 29.4 22.4 29.3 22.2 29.1C22 28.9 21.9 28.6 21.9 28.3C21.9 27.9 22.1 27.5 22.5 27.1C22.9 26.7 23.4 26.5 24.1 26.5H29.5Z" fill="white"/>
  
  <!-- Gradient definition -->
  <defs>
    <linearGradient id="gradient" x1="0" y1="0" x2="64" y2="64" gradientUnits="userSpaceOnUse">
      <stop stop-color="#6366F1" /> <!-- indigo-500 -->
      <stop offset="1" stop-color="#F43F5E" /> <!-- rose-500 -->
    </linearGradient>
  </defs>
</svg> 