<svg width="800" height="500" viewBox="0 0 800 500" fill="none" xmlns="http://www.w3.org/2000/svg">
  <!-- Background -->
  <rect width="800" height="500" rx="8" fill="#111827" />
  
  <!-- Left Sidebar -->
  <rect x="0" y="0" width="200" height="500" fill="#0F172A" />
  
  <!-- Logo area -->
  <rect x="20" y="20" width="160" height="40" rx="4" fill="#1E293B" />
  <circle cx="40" cy="40" r="10" fill="#6366F1" />
  <rect x="60" y="35" width="80" height="10" rx="2" fill="#E2E8F0" />
  
  <!-- Navigation Items -->
  <rect x="20" y="80" width="160" height="40" rx="4" fill="#1E293B" />
  <circle cx="40" cy="100" r="8" fill="#6366F1" />
  <rect x="60" y="95" width="80" height="10" rx="2" fill="#E2E8F0" />
  
  <rect x="20" y="130" width="160" height="40" rx="4" fill="#1E293B" />
  <circle cx="40" cy="150" r="8" fill="#6366F1" />
  <rect x="60" y="145" width="80" height="10" rx="2" fill="#E2E8F0" />
  
  <rect x="20" y="180" width="160" height="40" rx="4" fill="#1E293B" />
  <circle cx="40" cy="200" r="8" fill="#A855F7" />
  <rect x="60" y="195" width="80" height="10" rx="2" fill="#E2E8F0" />
  
  <rect x="20" y="230" width="160" height="40" rx="4" fill="#1E293B" />
  <circle cx="40" cy="250" r="8" fill="#6366F1" />
  <rect x="60" y="245" width="80" height="10" rx="2" fill="#E2E8F0" />
  
  <!-- Main Content Area -->
  <!-- Header -->
  <rect x="220" y="20" width="560" height="60" rx="4" fill="#1E293B" />
  <rect x="240" y="40" width="200" height="20" rx="2" fill="#E2E8F0" />
  <circle cx="740" cy="50" r="16" fill="#6366F1" />
  
  <!-- Stats Cards -->
  <rect x="220" y="100" width="180" height="100" rx="8" fill="#1E293B" />
  <rect x="240" y="120" width="100" height="16" rx="2" fill="#64748B" />
  <rect x="240" y="150" width="60" height="30" rx="2" fill="#6366F1" />
  
  <rect x="420" y="100" width="180" height="100" rx="8" fill="#1E293B" />
  <rect x="440" y="120" width="100" height="16" rx="2" fill="#64748B" />
  <rect x="440" y="150" width="60" height="30" rx="2" fill="#A855F7" />
  
  <rect x="620" y="100" width="180" height="100" rx="8" fill="#1E293B" />
  <rect x="640" y="120" width="100" height="16" rx="2" fill="#64748B" />
  <rect x="640" y="150" width="60" height="30" rx="2" fill="#F43F5E" />
  
  <!-- Chart Area -->
  <rect x="220" y="220" width="360" height="260" rx="8" fill="#1E293B" />
  <rect x="240" y="240" width="150" height="20" rx="2" fill="#E2E8F0" />
  
  <!-- Bar Chart -->
  <rect x="260" y="290" width="30" height="160" rx="2" fill="#1E293B" />
  <rect x="260" y="380" width="30" height="70" rx="2" fill="#6366F1" />
  
  <rect x="310" y="290" width="30" height="160" rx="2" fill="#1E293B" />
  <rect x="310" y="340" width="30" height="110" rx="2" fill="#818CF8" />
  
  <rect x="360" y="290" width="30" height="160" rx="2" fill="#1E293B" />
  <rect x="360" y="310" width="30" height="140" rx="2" fill="#A855F7" />
  
  <rect x="410" y="290" width="30" height="160" rx="2" fill="#1E293B" />
  <rect x="410" y="360" width="30" height="90" rx="2" fill="#C084FC" />
  
  <rect x="460" y="290" width="30" height="160" rx="2" fill="#1E293B" />
  <rect x="460" y="330" width="30" height="120" rx="2" fill="#F43F5E" />
  
  <!-- Recent Conversations -->
  <rect x="600" y="220" width="180" height="260" rx="8" fill="#1E293B" />
  <rect x="620" y="240" width="140" height="20" rx="2" fill="#E2E8F0" />
  
  <rect x="620" y="280" width="140" height="40" rx="4" fill="#0F172A" />
  <circle cx="635" cy="300" r="8" fill="#6366F1" />
  <rect x="650" y="295" width="80" height="10" rx="2" fill="#94A3B8" />
  
  <rect x="620" y="330" width="140" height="40" rx="4" fill="#0F172A" />
  <circle cx="635" cy="350" r="8" fill="#A855F7" />
  <rect x="650" y="345" width="80" height="10" rx="2" fill="#94A3B8" />
  
  <rect x="620" y="380" width="140" height="40" rx="4" fill="#0F172A" />
  <circle cx="635" cy="400" r="8" fill="#F43F5E" />
  <rect x="650" y="395" width="80" height="10" rx="2" fill="#94A3B8" />
  
  <rect x="620" y="430" width="140" height="30" rx="15" fill="#6366F1" />
  <rect x="650" y="440" width="80" height="10" rx="2" fill="#E2E8F0" />
</svg> 